<?xml version="1.0" encoding="UTF-8" standalone="no"?>
<svg
   xmlns:dc="http://purl.org/dc/elements/1.1/"
   xmlns:cc="http://creativecommons.org/ns#"
   xmlns:rdf="http://www.w3.org/1999/02/22-rdf-syntax-ns#"
   xmlns:svg="http://www.w3.org/2000/svg"
   xmlns="http://www.w3.org/2000/svg"
   xmlns:sodipodi="http://sodipodi.sourceforge.net/DTD/sodipodi-0.dtd"
   xmlns:inkscape="http://www.inkscape.org/namespaces/inkscape"
   inkscape:export-ydpi="576"
   inkscape:export-xdpi="576"
   inkscape:export-filename="D:\Projeck juli #1\export\filled line\png\25 - Cabriolet.png"
   width="64pt"
   height="64pt"
   viewBox="0 0 22.577778 22.577778"
   version="1.1"
   id="svg831"
   inkscape:version="1.0 (4035a4fb49, 2020-05-01)"
   sodipodi:docname="26 - Zeppelin.svg">
  <defs
     id="defs825">
    <pattern
       id="EMFhbasepattern"
       patternUnits="userSpaceOnUse"
       width="6"
       height="6"
       x="0"
       y="0" />
    <pattern
       id="EMFhbasepattern-9"
       patternUnits="userSpaceOnUse"
       width="6"
       height="6"
       x="0"
       y="0" />
    <pattern
       id="EMFhbasepattern-0"
       patternUnits="userSpaceOnUse"
       width="6"
       height="6"
       x="0"
       y="0" />
    <pattern
       id="EMFhbasepattern-7"
       patternUnits="userSpaceOnUse"
       width="6"
       height="6"
       x="0"
       y="0" />
    <pattern
       id="EMFhbasepattern-2"
       patternUnits="userSpaceOnUse"
       width="6"
       height="6"
       x="0"
       y="0" />
    <pattern
       id="EMFhbasepattern-98"
       patternUnits="userSpaceOnUse"
       width="6"
       height="6"
       x="0"
       y="0" />
    <pattern
       id="EMFhbasepattern-6"
       patternUnits="userSpaceOnUse"
       width="6"
       height="6"
       x="0"
       y="0" />
    <pattern
       id="EMFhbasepattern-01"
       patternUnits="userSpaceOnUse"
       width="6"
       height="6"
       x="0"
       y="0" />
    <pattern
       id="EMFhbasepattern-07"
       patternUnits="userSpaceOnUse"
       width="6"
       height="6"
       x="0"
       y="0" />
    <pattern
       id="EMFhbasepattern-8"
       patternUnits="userSpaceOnUse"
       width="6"
       height="6"
       x="0"
       y="0" />
    <pattern
       id="EMFhbasepattern-4"
       patternUnits="userSpaceOnUse"
       width="6"
       height="6"
       x="0"
       y="0" />
    <pattern
       id="EMFhbasepattern-40"
       patternUnits="userSpaceOnUse"
       width="6"
       height="6"
       x="0"
       y="0" />
    <pattern
       id="EMFhbasepattern-08"
       patternUnits="userSpaceOnUse"
       width="6"
       height="6"
       x="0"
       y="0" />
    <pattern
       id="EMFhbasepattern-04"
       patternUnits="userSpaceOnUse"
       width="6"
       height="6"
       x="0"
       y="0" />
    <pattern
       id="EMFhbasepattern-014"
       patternUnits="userSpaceOnUse"
       width="6"
       height="6"
       x="0"
       y="0" />
    <pattern
       id="EMFhbasepattern-27"
       patternUnits="userSpaceOnUse"
       width="6"
       height="6"
       x="0"
       y="0" />
    <pattern
       id="EMFhbasepattern-09"
       patternUnits="userSpaceOnUse"
       width="6"
       height="6"
       x="0"
       y="0" />
    <pattern
       id="EMFhbasepattern-5"
       patternUnits="userSpaceOnUse"
       width="6"
       height="6"
       x="0"
       y="0" />
    <pattern
       id="EMFhbasepattern-018"
       patternUnits="userSpaceOnUse"
       width="6"
       height="6"
       x="0"
       y="0" />
  </defs>
  <sodipodi:namedview
     inkscape:lockguides="true"
     id="base"
     pagecolor="#ffffff"
     bordercolor="#666666"
     borderopacity="1.0"
     inkscape:pageopacity="0.0"
     inkscape:pageshadow="2"
     inkscape:zoom="6.2578125"
     inkscape:cx="42.666667"
     inkscape:cy="42.666667"
     inkscape:document-units="pt"
     inkscape:current-layer="layer1"
     showgrid="false"
     units="pt"
     inkscape:window-width="1366"
     inkscape:window-height="705"
     inkscape:window-x="-8"
     inkscape:window-y="-8"
     inkscape:window-maximized="1"
     inkscape:pagecheckerboard="true"
     inkscape:showpageshadow="false"
     inkscape:object-paths="true"
     inkscape:snap-intersection-paths="true"
     inkscape:snap-smooth-nodes="true"
     inkscape:snap-midpoints="true"
     showguides="true"
     inkscape:snap-bbox="true"
     inkscape:bbox-nodes="true"
     inkscape:snap-nodes="false"
     inkscape:snap-global="true"
     inkscape:document-rotation="0">
    <inkscape:grid
       type="xygrid"
       id="grid1378" />
    <sodipodi:guide
       position="0.97013831,21.607643"
       orientation="78.000048,0"
       id="guide1380"
       inkscape:locked="true" />
    <sodipodi:guide
       position="0.97013831,0.97013129"
       orientation="0,78.000005"
       id="guide1382"
       inkscape:locked="true" />
    <sodipodi:guide
       position="21.607639,0.97013129"
       orientation="-78.000048,0"
       id="guide1384"
       inkscape:locked="true" />
    <sodipodi:guide
       position="21.607639,21.607643"
       orientation="0,-78.000005"
       id="guide1386"
       inkscape:locked="true" />
  </sodipodi:namedview>
  <metadata
     id="metadata828">
    <rdf:RDF>
      <cc:Work
         rdf:about="">
        <dc:format>image/svg+xml</dc:format>
        <dc:type
           rdf:resource="http://purl.org/dc/dcmitype/StillImage" />
        <dc:title></dc:title>
      </cc:Work>
    </rdf:RDF>
  </metadata>
  <g
     inkscape:label="Icon"
     inkscape:groupmode="layer"
     id="layer1"
     transform="translate(0,-274.42223)">
    <g
       transform="matrix(1.2580573,0,0,1.2580573,77.38716,-114.46199)"
       style="display:inline;stroke-width:0.794876"
       id="g955">
      <g
         style="stroke-width:0.794876"
         id="g591">
        <path
           sodipodi:nodetypes="ccccccccc"
           id="path904"
           d="m -57.777344,318.61328 -1.59375,2.125 c -0.131249,0.17422 -0.0072,0.42349 0.210938,0.42383 h 2.115234 c 0.08296,-1.5e-4 0.161046,-0.0392 0.210938,-0.10547 l 1.113281,-1.49414 c 0.104172,-0.13982 0.047,-0.34041 -0.115235,-0.4043 l -1.676757,-0.6416 c -0.12905,-0.0124 -0.212322,0.027 -0.264649,0.0967 z"
           style="color:#000000;font-style:normal;font-variant:normal;font-weight:normal;font-stretch:normal;font-size:medium;line-height:normal;font-family:sans-serif;font-variant-ligatures:normal;font-variant-position:normal;font-variant-caps:normal;font-variant-numeric:normal;font-variant-alternates:normal;font-variant-east-asian:normal;font-feature-settings:normal;font-variation-settings:normal;text-indent:0;text-align:start;text-decoration:none;text-decoration-line:none;text-decoration-style:solid;text-decoration-color:#000000;letter-spacing:normal;word-spacing:normal;text-transform:none;writing-mode:lr-tb;direction:ltr;text-orientation:mixed;dominant-baseline:auto;baseline-shift:baseline;text-anchor:start;white-space:normal;shape-padding:0;shape-margin:0;inline-size:0;clip-rule:nonzero;display:inline;overflow:visible;visibility:visible;isolation:auto;mix-blend-mode:normal;color-interpolation:sRGB;color-interpolation-filters:linearRGB;solid-color:#000000;solid-opacity:1;vector-effect:none;fill:#dc1c4b;fill-opacity:1;fill-rule:nonzero;stroke:none;stroke-width:0.420622;stroke-linecap:round;stroke-linejoin:round;stroke-miterlimit:4;stroke-dasharray:none;stroke-dashoffset:0;stroke-opacity:1;color-rendering:auto;image-rendering:auto;shape-rendering:auto;text-rendering:auto;enable-background:accumulate;stop-color:#000000" />
        <path
           sodipodi:nodetypes="cccccsccc"
           id="path897"
           d="m -59.148438,313.22284 c -0.218114,3.4e-4 -0.342172,0.2496 -0.210937,0.42382 l 1.582031,2.10938 c 0.06949,0.0917 0.190289,0.12803 0.298828,0.0898 l 1.88086,-0.6582 c 0.168934,-0.0588 0.232024,-0.26486 0.125,-0.4082 l -1.087891,-1.45703 c -0.04989,-0.0676 -0.128899,-0.10744 -0.212891,-0.1075 z"
           style="color:#000000;font-style:normal;font-variant:normal;font-weight:normal;font-stretch:normal;font-size:medium;line-height:normal;font-family:sans-serif;font-variant-ligatures:normal;font-variant-position:normal;font-variant-caps:normal;font-variant-numeric:normal;font-variant-alternates:normal;font-variant-east-asian:normal;font-feature-settings:normal;font-variation-settings:normal;text-indent:0;text-align:start;text-decoration:none;text-decoration-line:none;text-decoration-style:solid;text-decoration-color:#000000;letter-spacing:normal;word-spacing:normal;text-transform:none;writing-mode:lr-tb;direction:ltr;text-orientation:mixed;dominant-baseline:auto;baseline-shift:baseline;text-anchor:start;white-space:normal;shape-padding:0;shape-margin:0;inline-size:0;clip-rule:nonzero;display:inline;overflow:visible;visibility:visible;isolation:auto;mix-blend-mode:normal;color-interpolation:sRGB;color-interpolation-filters:linearRGB;solid-color:#000000;solid-opacity:1;vector-effect:none;fill:#dc1c4b;fill-opacity:1;fill-rule:nonzero;stroke:none;stroke-width:0.420622;stroke-linecap:round;stroke-linejoin:round;stroke-miterlimit:4;stroke-dasharray:none;stroke-dashoffset:0;stroke-opacity:1;color-rendering:auto;image-rendering:auto;shape-rendering:auto;text-rendering:auto;enable-background:accumulate;stop-color:#000000" />
        <path
           sodipodi:nodetypes="ccccccc"
           transform="matrix(0.26458334,0,0,0.26458334,0,280.06666)"
           d="m -218.37109,145.6875 -1.66211,2.2168 c 2.50283,1.92002 5.16096,2.72416 7.80272,3.56448 l 1.63281,-2.19336 c 0.39307,-0.52834 0.17708,-1.28578 -0.43554,-1.52734 l -6.37988,-2.4258 c -0.49975,-0.0207 -0.77789,0.12553 -0.958,0.36522 z"
           style="color:#000000;font-style:normal;font-variant:normal;font-weight:normal;font-stretch:normal;font-size:medium;line-height:normal;font-family:sans-serif;font-variant-ligatures:normal;font-variant-position:normal;font-variant-caps:normal;font-variant-numeric:normal;font-variant-alternates:normal;font-variant-east-asian:normal;font-feature-settings:normal;font-variation-settings:normal;text-indent:0;text-align:start;text-decoration:none;text-decoration-line:none;text-decoration-style:solid;text-decoration-color:#000000;letter-spacing:normal;word-spacing:normal;text-transform:none;writing-mode:lr-tb;direction:ltr;text-orientation:mixed;dominant-baseline:auto;baseline-shift:baseline;text-anchor:start;white-space:normal;shape-padding:0;shape-margin:0;inline-size:0;clip-rule:nonzero;display:inline;overflow:visible;visibility:visible;isolation:auto;mix-blend-mode:normal;color-interpolation:sRGB;color-interpolation-filters:linearRGB;solid-color:#000000;solid-opacity:1;vector-effect:none;fill:#b01d47;fill-opacity:1;fill-rule:nonzero;stroke:none;stroke-width:1.58975;stroke-linecap:round;stroke-linejoin:round;stroke-miterlimit:4;stroke-dasharray:none;stroke-dashoffset:0;stroke-opacity:1;color-rendering:auto;image-rendering:auto;shape-rendering:auto;text-rendering:auto;enable-background:accumulate;stop-color:#000000"
           id="path514" />
        <path
           id="path975"
           d="m -55.714844,320.8125 a 0.26460996,0.26460996 0 0 0 -0.263672,0.26367 v 1.0586 a 0.26460996,0.26460996 0 0 0 0.263672,0.26562 h 1.044922 a 0.26460996,0.26460996 0 0 0 0.263672,-0.26562 v -1.0586 a 0.26460996,0.26460996 0 0 0 -0.263672,-0.26367 z"
           style="color:#000000;font-style:normal;font-variant:normal;font-weight:normal;font-stretch:normal;font-size:medium;line-height:normal;font-family:sans-serif;font-variant-ligatures:normal;font-variant-position:normal;font-variant-caps:normal;font-variant-numeric:normal;font-variant-alternates:normal;font-variant-east-asian:normal;font-feature-settings:normal;font-variation-settings:normal;text-indent:0;text-align:start;text-decoration:none;text-decoration-line:none;text-decoration-style:solid;text-decoration-color:#000000;letter-spacing:normal;word-spacing:normal;text-transform:none;writing-mode:lr-tb;direction:ltr;text-orientation:mixed;dominant-baseline:auto;baseline-shift:baseline;text-anchor:start;white-space:normal;shape-padding:0;shape-margin:0;inline-size:0;clip-rule:nonzero;display:inline;overflow:visible;visibility:visible;isolation:auto;mix-blend-mode:normal;color-interpolation:sRGB;color-interpolation-filters:linearRGB;solid-color:#000000;solid-opacity:1;vector-effect:none;fill:#3a4d5c;fill-opacity:1;fill-rule:nonzero;stroke:none;stroke-width:0.420622;stroke-linecap:round;stroke-linejoin:round;stroke-miterlimit:4;stroke-dasharray:none;stroke-dashoffset:0;stroke-opacity:1;color-rendering:auto;image-rendering:auto;shape-rendering:auto;text-rendering:auto;enable-background:accumulate;stop-color:#000000" />
        <path
           id="path827"
           style="color:#000000;font-style:normal;font-variant:normal;font-weight:normal;font-stretch:normal;font-size:medium;line-height:normal;font-family:sans-serif;font-variant-ligatures:normal;font-variant-position:normal;font-variant-caps:normal;font-variant-numeric:normal;font-variant-alternates:normal;font-variant-east-asian:normal;font-feature-settings:normal;font-variation-settings:normal;text-indent:0;text-align:start;text-decoration:none;text-decoration-line:none;text-decoration-style:solid;text-decoration-color:#000000;letter-spacing:normal;word-spacing:normal;text-transform:none;writing-mode:lr-tb;direction:ltr;text-orientation:mixed;dominant-baseline:auto;baseline-shift:baseline;text-anchor:start;white-space:normal;shape-padding:0;shape-margin:0;inline-size:0;clip-rule:nonzero;display:inline;overflow:visible;visibility:visible;isolation:auto;mix-blend-mode:normal;color-interpolation:sRGB;color-interpolation-filters:linearRGB;solid-color:#000000;solid-opacity:1;vector-effect:none;fill:#143441;fill-opacity:1;fill-rule:nonzero;stroke:none;stroke-width:1.58975;stroke-linecap:round;stroke-linejoin:round;stroke-miterlimit:4;stroke-dasharray:none;stroke-dashoffset:0;stroke-opacity:1;color-rendering:auto;image-rendering:auto;shape-rendering:auto;text-rendering:auto;enable-background:accumulate;stop-color:#000000"
           d="m -209.29492,154 0.0605,6.00195 h 2.60743 a 1.0001006,1.0001006 0 0 0 0.99609,-1.0039 v -4.00196 A 1.0001006,1.0001006 0 0 0 -206.62695,154 Z"
           transform="matrix(0.26458334,0,0,0.26458334,0,280.06666)" />
        <path
           sodipodi:nodetypes="ccccccccc"
           id="path948"
           d="m -54.960938,319.71289 0.0293,2.94727 c 5.16e-4,0.14541 0.118264,0.26316 0.263672,0.26367 l 5.029297,0.0371 c 0.07891,9.1e-4 0.154111,-0.0335 0.205078,-0.0937 0.671685,-0.80047 1.174871,-1.42609 1.88086,-2.34571 0.128311,-0.16536 0.02293,-0.40718 -0.185547,-0.42578 l -6.95508,-0.64845 c -0.16074,0.01 -0.268455,0.12601 -0.26758,0.2656 z"
           style="color:#000000;font-style:normal;font-variant:normal;font-weight:normal;font-stretch:normal;font-size:medium;line-height:normal;font-family:sans-serif;font-variant-ligatures:normal;font-variant-position:normal;font-variant-caps:normal;font-variant-numeric:normal;font-variant-alternates:normal;font-variant-east-asian:normal;font-feature-settings:normal;font-variation-settings:normal;text-indent:0;text-align:start;text-decoration:none;text-decoration-line:none;text-decoration-style:solid;text-decoration-color:#000000;letter-spacing:normal;word-spacing:normal;text-transform:none;writing-mode:lr-tb;direction:ltr;text-orientation:mixed;dominant-baseline:auto;baseline-shift:baseline;text-anchor:start;white-space:normal;shape-padding:0;shape-margin:0;inline-size:0;clip-rule:nonzero;display:inline;overflow:visible;visibility:visible;isolation:auto;mix-blend-mode:normal;color-interpolation:sRGB;color-interpolation-filters:linearRGB;solid-color:#000000;solid-opacity:1;vector-effect:none;fill:#5f8ea2;fill-opacity:1;fill-rule:nonzero;stroke:none;stroke-width:0.420622;stroke-linecap:round;stroke-linejoin:round;stroke-miterlimit:4;stroke-dasharray:none;stroke-dashoffset:0;stroke-opacity:1;color-rendering:auto;image-rendering:auto;shape-rendering:auto;text-rendering:auto;enable-background:accumulate;stop-color:#000000" />
        <path
           sodipodi:nodetypes="ccsscccccccc"
           transform="matrix(0.26458334,0,0,0.26458334,0,280.06666)"
           d="m -207.72653,149.8438 0.0234,2.42187 c 6.65951,1.65571 13.35675,2.291 20.02707,2.45266 2.47942,0.0601 3.25964,1.63359 1.70375,3.56517 -0.91914,1.14107 -1.8505,2.2748 -2.86364,3.48217 -0.15496,0.18293 -0.37054,0.30438 -0.60742,0.3418 l 1.83203,0.0156 c 0.29858,0.003 0.58299,-0.12914 0.77539,-0.35743 2.67021,-3.2003 4.8708,-5.99524 7.10938,-8.86523 0.48509,-0.62496 0.0868,-1.53907 -0.70117,-1.60937 l -26.28807,-2.45117 c -0.60718,0.0371 -1.01404,0.4765 -1.01072,1.00393 z"
           style="color:#000000;font-style:normal;font-variant:normal;font-weight:normal;font-stretch:normal;font-size:medium;line-height:normal;font-family:sans-serif;font-variant-ligatures:normal;font-variant-position:normal;font-variant-caps:normal;font-variant-numeric:normal;font-variant-alternates:normal;font-variant-east-asian:normal;font-feature-settings:normal;font-variation-settings:normal;text-indent:0;text-align:start;text-decoration:none;text-decoration-line:none;text-decoration-style:solid;text-decoration-color:#000000;letter-spacing:normal;word-spacing:normal;text-transform:none;writing-mode:lr-tb;direction:ltr;text-orientation:mixed;dominant-baseline:auto;baseline-shift:baseline;text-anchor:start;white-space:normal;shape-padding:0;shape-margin:0;inline-size:0;clip-rule:nonzero;display:inline;overflow:visible;visibility:visible;isolation:auto;mix-blend-mode:normal;color-interpolation:sRGB;color-interpolation-filters:linearRGB;solid-color:#000000;solid-opacity:1;vector-effect:none;fill:#3a4d5c;fill-opacity:1;fill-rule:nonzero;stroke:none;stroke-width:1.58975;stroke-linecap:round;stroke-linejoin:round;stroke-miterlimit:4;stroke-dasharray:none;stroke-dashoffset:0;stroke-opacity:1;color-rendering:auto;image-rendering:auto;shape-rendering:auto;text-rendering:auto;enable-background:accumulate;stop-color:#000000"
           id="path541" />
        <path
           sodipodi:nodetypes="ccccccc"
           transform="matrix(0.26458334,0,0,0.26458334,0,280.06666)"
           d="m -220.02163,132.68767 1.65039,2.20117 c 0.26243,0.34661 0.71873,0.48398 1.1289,0.33985 l 7.10938,-2.48829 c 0.63869,-0.22224 0.87729,-1.00112 0.47265,-1.54296 L -211.30078,129 c -3.07887,0.67232 -6.56249,1.86278 -8.72085,3.68767 z"
           style="color:#000000;font-style:normal;font-variant:normal;font-weight:normal;font-stretch:normal;font-size:medium;line-height:normal;font-family:sans-serif;font-variant-ligatures:normal;font-variant-position:normal;font-variant-caps:normal;font-variant-numeric:normal;font-variant-alternates:normal;font-variant-east-asian:normal;font-feature-settings:normal;font-variation-settings:normal;text-indent:0;text-align:start;text-decoration:none;text-decoration-line:none;text-decoration-style:solid;text-decoration-color:#000000;letter-spacing:normal;word-spacing:normal;text-transform:none;writing-mode:lr-tb;direction:ltr;text-orientation:mixed;dominant-baseline:auto;baseline-shift:baseline;text-anchor:start;white-space:normal;shape-padding:0;shape-margin:0;inline-size:0;clip-rule:nonzero;display:inline;overflow:visible;visibility:visible;isolation:auto;mix-blend-mode:normal;color-interpolation:sRGB;color-interpolation-filters:linearRGB;solid-color:#000000;solid-opacity:1;vector-effect:none;fill:#b01d47;fill-opacity:1;fill-rule:nonzero;stroke:none;stroke-width:1.58975;stroke-linecap:round;stroke-linejoin:round;stroke-miterlimit:4;stroke-dasharray:none;stroke-dashoffset:0;stroke-opacity:1;color-rendering:auto;image-rendering:auto;shape-rendering:auto;text-rendering:auto;enable-background:accumulate;stop-color:#000000"
           id="path517" />
        <path
           sodipodi:nodetypes="cccssscccc"
           id="path934"
           d="m -58.432595,318.0625 c 0.389052,0.85816 1.215954,1.24011 2.103539,1.48828 2.875029,0.84583 5.68652,1.11885 8.551781,1.07227 1.896497,0 3.439453,-1.54296 3.439453,-3.43946 0,-1.89582 -1.541915,-3.43837 -3.4375,-3.43945 h -0.002 c -2.939398,-0.0144 -5.746525,0.5073 -8.507339,1.16644 0.0187,0.10001 -0.0226,0.10001 -0.0239,0 -0.88381,0.22355 -1.713746,0.63017 -2.115232,1.48437 z"
           style="color:#000000;font-style:normal;font-variant:normal;font-weight:normal;font-stretch:normal;font-size:medium;line-height:normal;font-family:sans-serif;font-variant-ligatures:normal;font-variant-position:normal;font-variant-caps:normal;font-variant-numeric:normal;font-variant-alternates:normal;font-variant-east-asian:normal;font-feature-settings:normal;font-variation-settings:normal;text-indent:0;text-align:start;text-decoration:none;text-decoration-line:none;text-decoration-style:solid;text-decoration-color:#000000;letter-spacing:normal;word-spacing:normal;text-transform:none;writing-mode:lr-tb;direction:ltr;text-orientation:mixed;dominant-baseline:auto;baseline-shift:baseline;text-anchor:start;white-space:normal;shape-padding:0;shape-margin:0;inline-size:0;clip-rule:nonzero;display:inline;overflow:visible;visibility:visible;isolation:auto;mix-blend-mode:normal;color-interpolation:sRGB;color-interpolation-filters:linearRGB;solid-color:#000000;solid-opacity:1;vector-effect:none;fill:#ececec;fill-opacity:1;fill-rule:nonzero;stroke:none;stroke-width:0.420622;stroke-linecap:round;stroke-linejoin:round;stroke-miterlimit:4;stroke-dasharray:none;stroke-dashoffset:0;stroke-opacity:1;color-rendering:auto;image-rendering:auto;shape-rendering:auto;text-rendering:auto;enable-background:accumulate;stop-color:#000000" />
        <path
           id="path839"
           style="color:#000000;font-style:normal;font-variant:normal;font-weight:normal;font-stretch:normal;font-size:medium;line-height:normal;font-family:sans-serif;font-variant-ligatures:normal;font-variant-position:normal;font-variant-caps:normal;font-variant-numeric:normal;font-variant-alternates:normal;font-variant-east-asian:normal;font-feature-settings:normal;font-variation-settings:normal;text-indent:0;text-align:start;text-decoration:none;text-decoration-line:none;text-decoration-style:solid;text-decoration-color:#000000;letter-spacing:normal;word-spacing:normal;text-transform:none;writing-mode:lr-tb;direction:ltr;text-orientation:mixed;dominant-baseline:auto;baseline-shift:baseline;text-anchor:start;white-space:normal;shape-padding:0;shape-margin:0;inline-size:0;clip-rule:nonzero;display:inline;overflow:visible;visibility:visible;isolation:auto;mix-blend-mode:normal;color-interpolation:sRGB;color-interpolation-filters:linearRGB;solid-color:#000000;solid-opacity:1;vector-effect:none;fill:#cccccc;fill-opacity:1;fill-rule:nonzero;stroke:none;stroke-width:0.420622;stroke-linecap:round;stroke-linejoin:round;stroke-miterlimit:4;stroke-dasharray:none;stroke-dashoffset:0;stroke-opacity:1;color-rendering:auto;image-rendering:auto;shape-rendering:auto;text-rendering:auto;enable-background:accumulate;stop-color:#000000"
           d="m -47.777446,313.74418 c -2.939399,-0.0144 -5.766316,0.40746 -8.52713,1.0666 a 0.26460996,0.26460996 0 0 0 -0.0041,0 c -0.774354,0.19587 -1.506834,0.53203 -1.937351,1.14877 0.401219,-0.29481 0.894106,-0.48957 1.408184,-0.6196 a 0.26460996,0.26460996 0 0 1 0.0041,0 c 2.760813,-0.65914 5.58773,-1.081 8.527129,-1.0666 h 0.0021 c 1.895586,0.001 3.437517,1.54376 3.437517,3.43958 0,0.814 -0.285719,1.5616 -0.760162,2.15129 0.785056,-0.63092 1.289328,-1.59727 1.289328,-2.68045 0,-1.89583 -1.541931,-3.43851 -3.437517,-3.43959 z" />
        <path
           sodipodi:nodetypes="ccccccccccc"
           id="path864"
           d="m -55.431641,316.33398 c -0.118428,0.0302 -0.200771,0.13756 -0.199218,0.25977 l 0.01758,1.1582 c 0.002,0.1193 0.0836,0.22249 0.199219,0.25196 1.447987,0.37932 3.548093,0.5358 5.603515,0.49023 2.055422,-0.0456 3.930424,-0.28776 5.182704,-0.75976 0.102677,-0.0394 0.170321,-0.13809 0.169921,-0.24805 v -0.50195 c 4e-4,-0.10996 -0.06724,-0.2087 -0.169921,-0.24805 -1.239767,-0.46729 -3.115602,-0.65637 -5.178799,-0.81641 -2.061756,-0.0771 -4.171941,0.0443 -5.625001,0.41406 z"
           style="color:#000000;font-style:normal;font-variant:normal;font-weight:normal;font-stretch:normal;font-size:medium;line-height:normal;font-family:sans-serif;font-variant-ligatures:normal;font-variant-position:normal;font-variant-caps:normal;font-variant-numeric:normal;font-variant-alternates:normal;font-variant-east-asian:normal;font-feature-settings:normal;font-variation-settings:normal;text-indent:0;text-align:start;text-decoration:none;text-decoration-line:none;text-decoration-style:solid;text-decoration-color:#000000;letter-spacing:normal;word-spacing:normal;text-transform:none;writing-mode:lr-tb;direction:ltr;text-orientation:mixed;dominant-baseline:auto;baseline-shift:baseline;text-anchor:start;white-space:normal;shape-padding:0;shape-margin:0;inline-size:0;clip-rule:nonzero;display:inline;overflow:visible;visibility:visible;isolation:auto;mix-blend-mode:normal;color-interpolation:sRGB;color-interpolation-filters:linearRGB;solid-color:#000000;solid-opacity:1;vector-effect:none;fill:#dc1c4b;fill-opacity:1;fill-rule:nonzero;stroke:none;stroke-width:0.420622;stroke-linecap:round;stroke-linejoin:round;stroke-miterlimit:4;stroke-dasharray:none;stroke-dashoffset:0;stroke-opacity:1;color-rendering:auto;image-rendering:auto;shape-rendering:auto;text-rendering:auto;enable-background:accumulate;stop-color:#000000" />
        <path
           id="path878"
           d="m -56.244141,315.86133 a 0.26460996,0.26460996 0 0 0 -0.03125,0.002 l -4.234375,0.5293 a 0.26460996,0.26460996 0 0 0 -0.230468,0.26172 v 1.05859 a 0.26460996,0.26460996 0 0 0 0.230468,0.26367 l 4.234375,0.5293 a 0.26460996,0.26460996 0 0 0 0.03125,0.002 c 0.727498,0 1.324224,-0.59672 1.324219,-1.32422 -2e-6,-0.72749 -0.596727,-1.32226 -1.324219,-1.32226 z"
           style="color:#000000;font-style:normal;font-variant:normal;font-weight:normal;font-stretch:normal;font-size:medium;line-height:normal;font-family:sans-serif;font-variant-ligatures:normal;font-variant-position:normal;font-variant-caps:normal;font-variant-numeric:normal;font-variant-alternates:normal;font-variant-east-asian:normal;font-feature-settings:normal;font-variation-settings:normal;text-indent:0;text-align:start;text-decoration:none;text-decoration-line:none;text-decoration-style:solid;text-decoration-color:#000000;letter-spacing:normal;word-spacing:normal;text-transform:none;writing-mode:lr-tb;direction:ltr;text-orientation:mixed;dominant-baseline:auto;baseline-shift:baseline;text-anchor:start;white-space:normal;shape-padding:0;shape-margin:0;inline-size:0;clip-rule:nonzero;display:inline;overflow:visible;visibility:visible;isolation:auto;mix-blend-mode:normal;color-interpolation:sRGB;color-interpolation-filters:linearRGB;solid-color:#000000;solid-opacity:1;vector-effect:none;fill:#b01d47;fill-opacity:1;fill-rule:nonzero;stroke:none;stroke-width:0.420622;stroke-linecap:round;stroke-linejoin:round;stroke-miterlimit:4;stroke-dasharray:none;stroke-dashoffset:0;stroke-opacity:1;color-rendering:auto;image-rendering:auto;shape-rendering:auto;text-rendering:auto;enable-background:accumulate;stop-color:#000000" />
        <path
           sodipodi:nodetypes="ccccscscc"
           id="path834"
           style="color:#000000;font-style:normal;font-variant:normal;font-weight:normal;font-stretch:normal;font-size:medium;line-height:normal;font-family:sans-serif;font-variant-ligatures:normal;font-variant-position:normal;font-variant-caps:normal;font-variant-numeric:normal;font-variant-alternates:normal;font-variant-east-asian:normal;font-feature-settings:normal;font-variation-settings:normal;text-indent:0;text-align:start;text-decoration:none;text-decoration-line:none;text-decoration-style:solid;text-decoration-color:#000000;letter-spacing:normal;word-spacing:normal;text-transform:none;writing-mode:lr-tb;direction:ltr;text-orientation:mixed;dominant-baseline:auto;baseline-shift:baseline;text-anchor:start;white-space:normal;shape-padding:0;shape-margin:0;inline-size:0;clip-rule:nonzero;display:inline;overflow:visible;visibility:visible;isolation:auto;mix-blend-mode:normal;color-interpolation:sRGB;color-interpolation-filters:linearRGB;solid-color:#000000;solid-opacity:1;vector-effect:none;fill:#801231;fill-opacity:1;fill-rule:nonzero;stroke:none;stroke-width:0.420622;stroke-linecap:round;stroke-linejoin:round;stroke-miterlimit:4;stroke-dasharray:none;stroke-dashoffset:0;stroke-opacity:1;color-rendering:auto;image-rendering:auto;shape-rendering:auto;text-rendering:auto;enable-background:accumulate;stop-color:#000000"
           d="m -60.51,316.39252 c -0.131684,0.0171 -0.230276,0.12921 -0.230476,0.262 v 0.22996 l 3.951437,-0.49296 c 0.743251,-0.001 1.339709,0.59391 1.339709,1.3214 2e-6,0.22813 -0.06393,0.43983 -0.166913,0.62787 0.411623,-0.22544 0.696085,-0.65767 0.69608,-1.15704 0,-0.72749 -0.596459,-1.3224 -1.33971,-1.3214 z" />
      </g>
      <path
         sodipodi:nodetypes="cccccccccccsccccccccccccccccccccccccccccccccccccccccccccccccsccccscscsccccccccccscccccccsccccccccccccsccscccsccscccsccscccccccccc"
         d="m -56.48028,321.98973 c 0.06577,0.13055 0.225018,0.18315 0.355534,0.1173 l 0.146243,-0.0729 v 0.10232 c 5.29e-4,0.14541 0.118661,0.26304 0.264068,0.26355 h 0.780314 l 0.0026,0.262 c 0.0016,0.14465 0.118896,0.26098 0.263549,0.26148 l 5.029666,0.0372 c 0.07892,7.9e-4 0.153683,-0.0333 0.204639,-0.0935 0.645218,-0.76892 1.142722,-1.38817 1.806091,-2.24999 1.826924,-0.0792 3.289723,-1.58785 3.289723,-3.4339 0,-1.89583 -1.341882,-3.45851 -3.630731,-3.46561 -2.28885,-0.007 -5.075561,0.36519 -7.604242,0.92675 l -0.987536,-1.3224 c -0.04989,-0.0676 -0.128918,-0.1075 -0.212908,-0.10749 h -6.1e-5 l -2.377117,0.008 c -0.217225,0.002 -0.339494,0.25025 -0.208772,0.42375 l 1.453658,1.93838 c -0.171487,0.15358 -0.318384,0.33166 -0.435631,0.53692 l -2.168345,0.27079 c -0.133287,0.0163 -0.233257,0.12979 -0.232542,0.26406 v 1.05627 c -5.34e-4,0.13383 0.09945,0.24706 0.232538,0.26331 l 2.153875,0.26923 c 0.118049,0.21052 0.272285,0.38691 0.44855,0.54105 l -1.463992,1.95182 c -0.131249,0.17422 -0.0073,0.42341 0.210838,0.42375 h 2.113566 c 0.08364,5.3e-4 0.162602,-0.0385 0.212908,-0.10542 l 1.00149,-1.34462 c 0.29047,0.0899 0.58179,0.1698 0.873331,0.24391 l 0.0088,0.85628 h -0.764289 c -0.146169,5.3e-4 -0.264626,0.11945 -0.264068,0.26562 v 0.10025 l -0.146243,-0.0729 c -0.164515,-0.0663 -0.264512,-0.0389 -0.355534,0.11937 -0.06424,0.13055 -0.0113,0.28844 0.118856,0.38163 -0.131291,0.0933 -0.184425,0.25266 -0.118856,0.3837 z m -0.423746,-8.24394 0.393774,0.52709 h -1.717725 l -0.39274,-0.52348 z m -0.703834,2.28358 c 0.344212,-0.33309 0.84655,-0.55771 1.430404,-0.70539 2.730341,-0.65164 5.513896,-1.06541 8.400521,-1.0511 1.409552,0 2.580593,0.99572 2.850989,2.32389 -1.245166,-0.3817 -3.034615,-0.60796 -4.880322,-0.67696 -1.988945,-0.0744 -4.017047,0.0384 -5.462715,0.37827 -0.242795,-0.26624 -0.588822,-0.43718 -0.99064,-0.43615 z m -0.223242,-1.2268 h 1.561145 c -0.01151,0.003 -0.02313,0.005 -0.03462,0.008 -0.0013,-10e-6 -0.0024,-10e-6 -0.0036,0 -0.416274,0.10529 -0.819185,0.25324 -1.170988,0.46147 z m 1.58905,1.58957 c 0.439981,0.002 0.793232,0.35074 0.793234,0.79116 3e-6,0.44042 -0.353247,0.791 -0.793234,0.79272 l -2.911967,-0.3638 v -0.85628 z m 6.419774,1.57406 c -1.880526,0.0417 -3.804563,-0.0989 -5.159375,-0.40566 0.03642,-0.12048 0.06201,-0.24541 0.06201,-0.37724 0,-0.1419 -0.02885,-0.27626 -0.0708,-0.40463 1.172869,-0.25275 2.772304,-0.36853 4.402831,-0.34881 h -1.1e-5 c 0.253786,0.003 0.50836,0.01 0.761712,0.0191 1.931852,0.0722 3.812005,0.33479 4.955775,0.78677 -1.155049,0.45108 -3.029307,0.68781 -4.952148,0.73044 z m -9.860907,-1.14412 v 0.72399 l -0.529683,-0.0662 v -0.59169 z m 9.872782,1.67174 c 1.82727,-0.0405 3.603646,-0.23724 4.856035,-0.61185 -0.312298,1.27146 -1.213366,2.2133 -3.321595,2.23655 -2.108226,0.0232 -5.153779,-0.13144 -7.881851,-1.06815 -0.0045,-10e-4 -0.0094,-0.003 -0.01394,-0.004 -0.598717,-0.16633 -1.099777,-0.38373 -1.440222,-0.70796 l 1.35237,0.16846 c 0.414549,0.001 0.769922,-0.1824 1.01337,-0.46457 1.440074,0.34975 3.455633,0.49555 5.435837,0.45165 z m -8.02071,1.07229 0.355029,-0.47336 c 0.335272,0.19301 0.716407,0.33499 1.102511,0.46044 z m 3.402904,0.51624 c 2.025431,0.45203 4.072716,0.55949 6.119007,0.5457 -0.503021,0.64526 -0.9422,1.19117 -1.454174,1.80299 l -4.640544,-0.0351 z m -3.799252,0.0129 h 1.450041 l -0.399976,0.53744 h -1.453139 z m 4.516522,1.03921 c -0.14532,5.3e-4 -0.262985,0.11823 -0.263551,0.26355 -5.3e-4,0.14613 0.117424,0.26505 0.263551,0.26562 h 0.529683 c 0.146933,5.3e-4 0.266194,-0.11868 0.265617,-0.26562 -5.29e-4,-0.14612 -0.119491,-0.26412 -0.265617,-0.26355 z m 1.720824,0 c -0.146124,-5.3e-4 -0.265044,0.11743 -0.265616,0.26355 -5.29e-4,0.14694 0.118682,0.26619 0.265616,0.26562 h 0.529166 c 0.146328,-2.6e-4 0.264639,-0.11929 0.264068,-0.26562 -5.3e-4,-0.14552 -0.118547,-0.26326 -0.264068,-0.26355 z m 1.71876,0 c -0.14532,5.3e-4 -0.262985,0.11823 -0.263552,0.26355 -5.29e-4,0.14613 0.117425,0.26505 0.263552,0.26562 h 0.529167 c 0.146933,5.3e-4 0.266192,-0.11868 0.265615,-0.26562 -5.29e-4,-0.14612 -0.119491,-0.26412 -0.265615,-0.26355 z m -5.177463,0.20671 h 0.503844 l 0.0057,0.52968 h -0.509531 z"
         style="color:#000000;font-style:normal;font-variant:normal;font-weight:normal;font-stretch:normal;font-size:medium;line-height:normal;font-family:sans-serif;font-variant-ligatures:normal;font-variant-position:normal;font-variant-caps:normal;font-variant-numeric:normal;font-variant-alternates:normal;font-variant-east-asian:normal;font-feature-settings:normal;font-variation-settings:normal;text-indent:0;text-align:start;text-decoration:none;text-decoration-line:none;text-decoration-style:solid;text-decoration-color:#000000;letter-spacing:normal;word-spacing:normal;text-transform:none;writing-mode:lr-tb;direction:ltr;text-orientation:mixed;dominant-baseline:auto;baseline-shift:baseline;text-anchor:start;white-space:normal;shape-padding:0;shape-margin:0;inline-size:0;clip-rule:nonzero;display:inline;overflow:visible;visibility:visible;isolation:auto;mix-blend-mode:normal;color-interpolation:sRGB;color-interpolation-filters:linearRGB;solid-color:#000000;solid-opacity:1;vector-effect:none;fill:#000000;fill-opacity:1;fill-rule:nonzero;stroke:none;stroke-width:0.420622;stroke-linecap:round;stroke-linejoin:round;stroke-miterlimit:4;stroke-dasharray:none;stroke-dashoffset:0;stroke-opacity:1;color-rendering:auto;image-rendering:auto;shape-rendering:auto;text-rendering:auto;enable-background:accumulate;stop-color:#000000"
         id="path442-5" />
    </g>
  </g>
</svg>
